<?xml version="1.0" encoding="UTF-8" standalone="no"?>
<!-- Created with Inkscape (http://www.inkscape.org/) -->

<svg
   xmlns:dc="http://purl.org/dc/elements/1.1/"
   xmlns:cc="http://creativecommons.org/ns#"
   xmlns:rdf="http://www.w3.org/1999/02/22-rdf-syntax-ns#"
   xmlns:svg="http://www.w3.org/2000/svg"
   xmlns="http://www.w3.org/2000/svg"
   xmlns:sodipodi="http://sodipodi.sourceforge.net/DTD/sodipodi-0.dtd"
   xmlns:inkscape="http://www.inkscape.org/namespaces/inkscape"
   width="2212.7346mm"
   height="1159.0315mm"
   viewBox="0 0 2212.7346 1159.0315"
   version="1.1"
   id="svg18571"
   inkscape:version="0.92.4 (f8dce91, 2019-08-02)"
   sodipodi:docname="background.svg">
  <defs
     id="defs18565" />
  <sodipodi:namedview
     id="base"
     pagecolor="#ffffff"
     bordercolor="#666666"
     borderopacity="1.0"
     inkscape:pageopacity="0.0"
     inkscape:pageshadow="2"
     inkscape:zoom="0.061871843"
     inkscape:cx="3388.9881"
     inkscape:cy="2165.8792"
     inkscape:document-units="mm"
     inkscape:current-layer="layer1"
     showgrid="false"
     showborder="false"
     fit-margin-top="0"
     fit-margin-left="0"
     fit-margin-right="0"
     fit-margin-bottom="0"
     inkscape:window-width="1299"
     inkscape:window-height="713"
     inkscape:window-x="67"
     inkscape:window-y="27"
     inkscape:window-maximized="1" />
  <metadata
     id="metadata18568">
    <rdf:RDF>
      <cc:Work
         rdf:about="">
        <dc:format>image/svg+xml</dc:format>
        <dc:type
           rdf:resource="http://purl.org/dc/dcmitype/StillImage" />
        <dc:title></dc:title>
      </cc:Work>
    </rdf:RDF>
  </metadata>
  <g
     inkscape:label="Layer 1"
     inkscape:groupmode="layer"
     id="layer1"
     transform="translate(1030.016,476.79549)">
    <path
       style="opacity:0.6;fill:none;stroke:none;stroke-width:0.26458332px;stroke-linecap:butt;stroke-linejoin:miter;stroke-opacity:1"
       d="m -1026.9681,681.44221 h 2208.8928 v -55.9405 c 0,0 -24.3477,6.0616 -30.762,15.6833 v -11.2253 c 0,0 -64.1448,-14.4326 -95.1479,14.4325 0,0 -56.66133,-60.9374 -91.40643,-21.3815 0,0 -81.7843,-35.2796 -109.0459,-61.472 -27.2616,-26.1924 -22.9851,-52.38483 -22.9851,-52.38483 0,0 -0.5345,-15.5017 -14.967,-11.22532 -14.4327,4.2763 -2.1383,-21.38159 -19.7781,-48.64309 -17.6398,-27.26151 -37.9524,-74.83549 -32.607,-91.9407 0,0 -27.0444,-7.00971 -27.8003,-69.7538 -0.7562,-62.744 -24.9465,-157.994 24.1903,-172.3571 0,0 19.6549,-81.642897 96.7619,-90.714297 0,0 10.5833,8.31549 30.9941,-45.35709 0,0 63.5,49.13677 145.89893,-0.75602 0,0 65.0118,57.45241 142.875,3.02381 V -476.00174 h -2207.3675 v 454.408203 c 0,0 3.0101,3.02381 10.9476,-0.37799 0,0 28.72622,28.3482001 84.28872,15.8750001 0,0 -2.6458,26.0803999 53.6726,66.9017999 0,0 12.8512,11.71729 9.4494,55.184487 0,0 -3.7797,25.32441 37.4197,56.3185 0,0 28.7262,98.6518 12.8512,164.41962 0,0 -3.7798,12.85118 3.4018,38.17559 0,0 17.7648,88.44651 -33.6399,129.64589 0,0 -16.631,-22.67858 -40.0655,33.26195 -23.4345,55.9405 -15.497,61.988 -32.128,70.6815 -16.6309,8.6935 -23.8125,-3.7798 -26.4583,19.2768 0,0 -45.7351,-26.8363 -79.37502,-4.9137 z"
       id="path17640-9"
       inkscape:connector-curvature="0" />
    <path
       style="opacity:0.6;fill:#05050c;fill-opacity:1;stroke:none;stroke-width:6;stroke-linecap:butt;stroke-linejoin:miter;stroke-miterlimit:4;stroke-dasharray:none;stroke-opacity:1"
       d="M 3 3 L 3 1720.4492 C 3 1720.4492 14.376954 1731.8767 44.376953 1719.0195 C 44.376953 1719.0195 152.94727 1826.1623 362.94727 1779.0195 C 362.94727 1779.0195 352.94774 1877.5913 565.80469 2031.877 C 565.80469 2031.877 614.37673 2076.1618 601.51953 2240.4473 C 601.51953 2240.4473 587.233 2336.1617 742.94727 2453.3047 C 742.94727 2453.3047 851.51953 2826.1631 791.51953 3074.7344 C 791.51953 3074.7344 777.2339 3123.3052 804.37695 3219.0195 C 804.37695 3219.0195 871.51985 3553.3053 677.23438 3709.0195 C 677.23438 3709.0195 614.37603 3623.3056 525.80469 3834.7344 C 437.23335 4046.163 467.23428 4069.0196 404.37695 4101.877 C 341.52001 4134.7343 314.37683 4087.5913 304.37695 4174.7344 C 304.37695 4174.7344 131.51996 4073.305 4.3769531 4156.1621 L 11.519531 4377.5918 L 8360.0918 4377.5918 L 8360.0918 4166.1621 C 8360.0918 4166.1621 8268.0672 4189.072 8243.8242 4225.4375 L 8243.8242 4183.0117 C 8243.8242 4183.0117 8001.388 4128.4641 7884.2109 4237.5605 C 7884.2109 4237.5605 7670.0583 4007.2454 7538.7383 4156.748 C 7538.7383 4156.748 7229.6317 4023.407 7126.5957 3924.4121 C 7023.5597 3825.4172 7039.7227 3726.4219 7039.7227 3726.4219 C 7039.7227 3726.4219 7037.7023 3667.8334 6983.1543 3683.9961 C 6928.6055 3700.1585 6975.0725 3603.184 6908.4023 3500.1484 C 6841.7322 3397.1128 6764.961 3217.3059 6785.1641 3152.6562 C 6785.1641 3152.6562 6682.9487 3126.1625 6680.0918 2889.0195 C 6677.2337 2651.8769 6585.8056 2291.8775 6771.5195 2237.5918 C 6771.5195 2237.5918 6845.8063 1929.02 7137.2344 1894.7344 C 7137.2344 1894.7344 7177.2338 1926.1636 7254.377 1723.3066 C 7254.377 1723.3066 7494.3776 1909.0204 7805.8066 1720.4492 C 7805.8066 1720.4492 8051.5205 1937.5913 8345.8066 1731.877 L 8345.8066 3 L 3 3 z M 5280.0918 1834.7344 C 5280.0918 1834.7344 5414.3772 2054.7339 5600.0918 2031.877 C 5600.0918 2031.877 5974.3774 2517.5902 5902.9492 2780.4473 C 5902.9492 2780.4473 5904.3774 2954.7343 5952.9492 2974.7344 C 6001.5203 2994.7345 6102.3005 3283.9757 6019.4688 3500.1484 C 5936.6355 3716.3211 5845.7217 3910.27 5700.2598 3974.9199 C 5700.2598 3974.9199 5508.3304 3906.2302 5399.2344 3987.043 C 5290.1376 4067.8553 5273.9752 4104.2202 5251.752 4146.6465 C 5229.5287 4189.0728 5078.0059 4098.1582 5078.0059 4098.1582 C 5078.0059 4098.1582 4956.7884 4021.3883 4785.0625 4164.8301 C 4785.0625 4164.8301 4594.0268 4253.3297 4374.377 4174.7344 C 4374.377 4174.7344 4317.2338 4151.877 4251.5195 4151.877 C 4251.5195 4151.877 4291.5204 4066.162 4137.2344 3966.1621 C 4137.2344 3966.1621 4062.9484 3840.4482 4074.377 3706.1621 C 4074.377 3706.1621 4054.3771 3617.5906 3974.377 3483.3047 C 3974.377 3483.3047 3937.2346 3359.0195 3950.0918 3329.0195 L 3900.0918 3329.0195 C 3900.0918 3329.0195 3914.3763 3126.163 3988.6621 2974.7344 C 4062.948 2823.3057 4005.8047 2794.7344 4005.8047 2794.7344 C 4005.8047 2794.7344 4202.9492 2357.5916 4345.8066 2254.7344 C 4488.6637 2151.8772 4525.8066 1971.877 4525.8066 1971.877 C 4525.8066 1971.877 4791.5202 2254.7344 5280.0918 1834.7344 z M 2904.1582 1993.002 C 2904.1582 1993.002 2910.2188 2219.2757 3037.498 2243.5195 C 3164.777 2267.7633 3168.8184 2391.002 3168.8184 2391.002 C 3168.8184 2391.002 3098.108 2483.9357 3189.0215 2605.1543 C 3279.9354 2726.3724 3184.9801 2791.0211 3338.5234 2776.8789 C 3338.5234 2776.8789 3312.26 2964.7674 3393.0723 3067.8027 C 3473.8843 3170.8382 3352.666 3526.4121 3352.666 3526.4121 C 3352.666 3526.4121 3530.4526 3607.2252 3439.5391 3809.2559 C 3348.6252 4011.2863 3237.5083 4187.053 3195.082 4160.7891 C 3152.6556 4134.5251 3221.346 4090.077 3041.5391 4144.625 C 2861.7319 4199.1734 2712.2285 4075.9355 2712.2285 4075.9355 C 2712.2285 4075.9355 2603.1322 3989.0624 2334.4316 4116.3418 C 2334.4316 4116.3418 2180.8896 4114.3221 2152.6055 4023.4082 C 2152.6055 4023.4082 1912.1885 3956.738 1776.8281 4110.2812 C 1776.8281 4110.2812 1732.3804 4146.6467 1671.7715 4120.3828 L 1671.7715 4055.7324 C 1671.7715 4055.7324 1601.0606 4055.7326 1590.959 3968.8594 C 1590.959 3968.8594 1562.6759 3914.3105 1445.498 3873.9043 C 1328.3203 3833.4981 1283.873 3633.4883 1283.873 3633.4883 C 1283.873 3633.4883 1199.0199 3692.0766 1188.918 3609.2441 C 1178.8165 3526.4116 1190.9402 3211.2447 1255.5898 3199.123 C 1255.5898 3199.123 1148.5121 3088.0062 1306.0957 2821.3262 C 1306.0957 2821.3262 1558.635 2526.3612 1552.5742 2465.752 C 1552.5742 2465.752 1766.727 2584.9501 2112.1992 2067.752 C 2112.1992 2067.752 2487.9755 2300.0881 2904.1582 1993.002 z "
       transform="matrix(0.26458333,0,0,0.26458333,-1030.016,-476.79549)"
       id="path17663-1" />
  </g>
</svg>
