<?xml version="1.0" encoding="UTF-8"?>
<!-- Created with Inkscape (http://www.inkscape.org/) -->
<svg width="364.06665mm" height="966.24805mm" version="1.1" viewBox="0 0 364.06665 966.24809" xmlns="http://www.w3.org/2000/svg" xmlns:cc="http://creativecommons.org/ns#" xmlns:dc="http://purl.org/dc/elements/1.1/" xmlns:rdf="http://www.w3.org/1999/02/22-rdf-syntax-ns#">
 <metadata>
  <rdf:RDF>
   <cc:Work rdf:about="">
    <dc:format>image/svg+xml</dc:format>
    <dc:type rdf:resource="http://purl.org/dc/dcmitype/StillImage"/>
    <dc:title/>
   </cc:Work>
  </rdf:RDF>
 </metadata>
 <g transform="matrix(.16465058 0 0 .164652 147.3341 859.40663)" stroke-width="6.0734415">
  <path d="m-894.8289-5214.0046v4973.5208s3.01016 3.02352 10.94766-0.37828c0 0 28.72589 28.3482 84.28839 15.875 0 0-2.6457 26.08043 53.67269 66.90186 0 0 12.85137 11.71703 9.44956 55.18423 0 0-3.77999 25.324438 37.41942 56.318525 0 0 28.72642 98.652104 12.85142 164.41992 0 0-3.77973 12.85105 3.40185 38.17546 0 0 17.76487 88.44645-33.63981 129.64582 0 0-16.63126-22.67851-40.06578 33.26205-23.43449 55.9404-15.49675 61.98799-32.12774 70.68147-16.63092 8.69349-23.81253-3.77972-26.45833 19.27686 0 0-45.73511-26.83651-79.375-4.91389l1.88981 242.06044 2208.8931 2.86678v-242.28139s-24.3482 6.06158-30.7625 15.68329v-11.22517s-64.1446-14.43239-95.1477 14.43271c0 0-56.6613-60.93755-91.4063-21.38165 0 0-81.7844-35.2798-109.04599-61.47221-27.26158-26.1924-22.98515-52.38493-22.98515-52.38493s-0.53454-15.50151-14.96706-11.22512c-14.4327 4.27629-2.13831-21.38155-19.7781-48.64304-17.6398-27.2615-37.95221-74.83541-32.6068-91.94064 0 0-27.04447-7.00979-27.80038-69.753884-0.75618-62.743979-24.94664-157.99383 24.19027-172.35692 0 0 19.65505-81.64296 96.76204-90.71436 0 0 10.58317 8.31567 30.99397-45.35692 0 0 63.5002 49.13678 145.8991-0.75602 0 0 65.0118 57.45215 142.875 3.02358v-4982.0733zm1396.2305 5003.7587s35.52967 58.20819 84.66666 52.16064c0 0 99.02973 128.51163 80.13105 198.05922 0 0 0.37785 46.113462 13.22916 51.405128 12.85108 5.29172 39.51584 81.820122 17.59996 139.01581-21.91631 57.19569-45.97059 108.51131-84.45738 125.61663 0 0-50.7813-18.17415-79.6463 3.20754-28.8652 21.38161-33.1415 31.00313-39.02139 42.22842-5.87991 11.22532-45.97033-12.82917-45.97033-12.82917s-32.07212-20.31203-77.50793 17.64025c0 0-50.54484 23.41552-108.66054 2.62051 0 0-15.11913-6.04768-32.50603-6.04768 0 0 10.58355-22.67876-30.23795-49.13704 0 0-19.65482-33.26186-16.63102-68.79167 0 0-5.29164-23.43457-26.45834-58.96435 0 0-9.82725-32.88379-6.42544-40.82129h-13.22917s3.77943-53.67245 23.43423-93.737964c19.6548-40.065509 4.53564-47.624999 4.53564-47.624999s52.16125-115.66069 89.95885-142.87499c37.7977-27.214297 47.625-74.839357 47.625-74.839357s70.30337 74.839355 199.57127-36.28564zm-628.63243 41.87497s1.60356 59.86826 35.279518 66.28277c33.675901 6.414502 34.745162 39.021391 34.745162 39.021391s-18.708793 24.588721 5.345403 56.66114c24.054303 32.072291-1.06926 49.177267 39.555737 45.435477 0 0-6.948884 49.712165 14.432704 76.973592 21.381508 27.26147-10.690807 121.3404-10.690833 121.3404 0 0 47.039374 21.38174 22.985174 74.83573-24.054302 53.4539-53.453955 99.95884-64.679247 93.00982-11.225318-6.94899 6.94899-18.70914-40.624918-4.27672-47.57399 14.43259-87.1301-18.1741-87.13007-18.1741 0 0-28.86506-22.98518-99.95876 10.69083 0 0-40.62468-0.53438-48.10818-24.58868 0 0-63.61031-17.63985-99.42441 22.98515 0 0-11.76015 9.6217-27.79625 2.67271v-17.10541s-18.70893 2e-5 -21.38164-22.98518c0 0-7.48321-14.43273-38.48653-25.12351-31.00327-10.69081-42.76328-63.61009-42.76328-63.61009s-22.45075 15.50151-25.12354-6.41459c-2.67269-21.91609 0.53507-105.304 17.64027-108.5112 0 0-28.33097-29.39968 13.363-99.958764 0 0 66.81768-78.042811 65.21412-94.079001 0 0 56.66124 31.53782 148.06745-105.30416 0 0 99.42412 61.472257 209.53912-19.7776z" fill="#05050c" opacity=".6" stroke-width="14.967636"/>
 </g>
</svg>
