<?xml version="1.0" encoding="UTF-8" standalone="no"?>
<!-- Created with Inkscape (http://www.inkscape.org/) -->

<svg
   xmlns:dc="http://purl.org/dc/elements/1.1/"
   xmlns:cc="http://creativecommons.org/ns#"
   xmlns:rdf="http://www.w3.org/1999/02/22-rdf-syntax-ns#"
   xmlns:svg="http://www.w3.org/2000/svg"
   xmlns="http://www.w3.org/2000/svg"
   xmlns:sodipodi="http://sodipodi.sourceforge.net/DTD/sodipodi-0.dtd"
   xmlns:inkscape="http://www.inkscape.org/namespaces/inkscape"
   width="2211.1472mm"
   height="1029.1724mm"
   viewBox="0 0 2211.1472 1029.1724"
   version="1.1"
   id="svg19165"
   sodipodi:docname="background_cave.svg"
   inkscape:version="0.92.4 (f8dce91, 2019-08-02)">
  <defs
     id="defs19159" />
  <sodipodi:namedview
     id="base"
     pagecolor="#ffffff"
     bordercolor="#666666"
     borderopacity="1.0"
     inkscape:pageopacity="0.0"
     inkscape:pageshadow="2"
     inkscape:zoom="0.061871843"
     inkscape:cx="4188.8922"
     inkscape:cy="2743.5942"
     inkscape:document-units="mm"
     inkscape:current-layer="layer1"
     showgrid="false"
     showborder="false"
     inkscape:window-width="1299"
     inkscape:window-height="713"
     inkscape:window-x="67"
     inkscape:window-y="27"
     inkscape:window-maximized="1"
     fit-margin-top="0"
     fit-margin-left="0"
     fit-margin-right="0"
     fit-margin-bottom="0" />
  <metadata
     id="metadata19162">
    <rdf:RDF>
      <cc:Work
         rdf:about="">
        <dc:format>image/svg+xml</dc:format>
        <dc:type
           rdf:resource="http://purl.org/dc/dcmitype/StillImage" />
        <dc:title></dc:title>
      </cc:Work>
    </rdf:RDF>
  </metadata>
  <g
     inkscape:label="Layer 1"
     inkscape:groupmode="layer"
     id="layer1"
     transform="translate(1186.4604,340.17045)">
    <path
       style="opacity:0.6;fill:#05050c;fill-opacity:1;stroke:none;stroke-width:6;stroke-linecap:butt;stroke-linejoin:miter;stroke-miterlimit:4;stroke-dasharray:none;stroke-opacity:1"
       d="M -4484.2598,-1285.6836 V -53.041016 c 0,0 11.377,11.42751 41.377,-1.429687 0,0 108.5703,107.142803 318.5703,59.9999999 0,0 -9.9995,98.5717031 202.8574,252.8574231 0,0 48.5721,44.28484 35.7149,208.57031 0,0 -14.2866,95.71441 141.4277,212.85742 0,0 108.5723,372.85835 48.5723,621.42965 0,0 -14.2856,48.5709 12.8574,144.2852 0,0 67.1428,334.2858 -127.1426,490 0,0 -62.8583,-85.7141 -151.4297,125.7148 -88.5713,211.4283 -58.5704,234.2853 -121.4277,267.1426 -62.857,32.8573 -90.0001,-14.2856 -100,72.8574 0,0 -172.8571,-101.4293 -300,-18.5722 l 7.1426,221.4297 H 3872.832 v -211.4297 c 0,0 -92.0245,22.9099 -116.2675,59.2754 v -42.4258 c 0,0 -242.4363,-54.5476 -359.6133,54.5488 0,0 -214.153,-230.3151 -345.4727,-80.8125 0,0 -309.1066,-133.341 -412.1426,-232.3359 -103.0359,-98.9949 -86.873,-197.9903 -86.873,-197.9903 0,0 -2.0203,-58.5884 -56.5684,-42.4257 -54.5488,16.1624 -8.0818,-80.8121 -74.7519,-183.8477 -66.6701,-103.0356 -143.4414,-282.8425 -123.2383,-347.4922 0,0 -102.2153,-26.4937 -105.0723,-263.6367 -2.858,-237.1426 -94.2865,-597.14204 91.4278,-651.42774 0,0 74.2868,-308.57181 365.7148,-342.85742 0,0 39.9994,31.4293 117.1426,-171.427734 0,0 240.0008,185.713794 551.4297,-2.857422 0,0 245.7139,217.142016 540,11.427735 V -1285.6836 Z M 792.83203,61.244141 c 0,0 134.28536,219.999459 319.99997,197.142579 0,0 374.2856,485.71324 302.8575,748.57028 0,0 1.4281,174.2871 50,194.2871 48.571,20.0002 149.3512,309.2414 66.5195,525.4141 -82.8333,216.1727 -173.7471,410.1215 -319.209,474.7715 0,0 -191.9293,-68.6897 -301.02539,12.123 -109.09682,80.8124 -125.25918,117.1772 -147.48242,159.6035 -22.22325,42.4264 -173.7461,-48.4882 -173.7461,-48.4882 0,0 -121.21748,-76.7699 -292.94336,66.6718 0,0 -191.03565,88.4996 -410.68554,9.9043 0,0 -57.14316,-22.8574 -122.85742,-22.8574 0,0 40.00082,-85.715 -114.28516,-185.7148 0,0 -74.28596,-125.7141 -62.85742,-260 0,0 -19.99988,-88.5716 -100,-222.8574 0,0 -37.14236,-124.2852 -24.28516,-154.2852 h -50 c 0,0 14.28446,-202.8565 88.57031,-354.2852 74.28586,-151.4287 17.14258,-180 17.14258,-180 0,0 197.14488,-437.14276 340.00196,-539.99996 C 1.4043247,378.38694 38.546875,198.38672 38.546875,198.38672 c 0,0 265.713545,282.85741 754.285155,-137.142579 z M -1583.1016,219.51172 c 0,0 6.0607,226.27376 133.3399,250.51758 127.279,24.24378 131.3203,147.48242 131.3203,147.48242 0,0 -70.7104,92.93375 20.2031,214.15234 90.9139,121.21811 -4.0413,185.86684 149.502,171.72464 0,0 -26.2635,187.8885 54.5488,290.9238 80.812,103.0355 -40.4062,458.6094 -40.4063,458.6094 0,0 177.78661,80.8129 86.8731,282.8437 -90.9139,202.0305 -202.0307,377.7972 -244.457,351.5332 -42.4264,-26.2639 26.2639,-70.7117 -153.543,-16.164 -179.8072,54.5484 -329.3106,-68.6895 -329.3105,-68.6895 0,0 -109.0963,-86.8731 -377.7969,40.4063 0,0 -153.5421,-2.0197 -181.8262,-92.9336 0,0 -240.4169,-66.6703 -375.7773,86.873 0,0 -44.4478,36.3655 -105.0567,10.1016 v -64.6504 c 0,0 -70.7109,10e-5 -80.8125,-86.8731 0,0 -28.283,-54.5489 -145.4609,-94.955 -117.1777,-40.4062 -161.625,-240.4161 -161.625,-240.4161 0,0 -84.8532,58.5884 -94.9551,-24.2441 -10.1015,-82.8325 2.0223,-397.9994 66.6719,-410.1211 0,0 -107.0777,-111.1169 50.5058,-377.7969 0,0 252.5393,-294.96496 246.4786,-355.57418 0,0 214.1527,119.19806 559.625,-398 0,0 375.7762,232.33611 791.9589,-74.75 z"
       transform="scale(0.26458333)"
       id="path17663-1"
       inkscape:connector-curvature="0" />
  </g>
</svg>
