<?xml version="1.0" encoding="UTF-8"?>
<!-- Created with Inkscape (http://www.inkscape.org/) -->
<svg width="85.341507mm" height="94.81842mm" version="1.1" viewBox="0 0 85.341507 94.81842" xmlns="http://www.w3.org/2000/svg" xmlns:cc="http://creativecommons.org/ns#" xmlns:dc="http://purl.org/dc/elements/1.1/" xmlns:rdf="http://www.w3.org/1999/02/22-rdf-syntax-ns#">
 <metadata>
  <rdf:RDF>
   <cc:Work rdf:about="">
    <dc:format>image/svg+xml</dc:format>
    <dc:type rdf:resource="http://purl.org/dc/dcmitype/StillImage"/>
    <dc:title/>
   </cc:Work>
  </rdf:RDF>
 </metadata>
 <g transform="translate(6.3850384,-139.9777)">
  <g stroke="#000">
   <path d="m33.426126 142.09616c10.291799 0.0706 20.9119 2.43661 27.548 4.64712 0.1496 4.1386-2.1003 18.58029-2.7505 30.23809-0.7523-0.17528-1.5527-0.39529-2.4107-0.66973-26.806599-8.57349-59.531199 18.89904-59.531199 18.89904-2.645802-23.43452 5.102399-36.09695 5.102399-36.09695 4.055801-7.24697 15.7182-16.50266 28.896501-16.97261 1.0595-0.0378 2.108499-0.0521 3.145499-0.045z" fill="#333" stroke-width="4.2333331"/>
   <path d="m59.002926 145.9631c0.567 3.96875-2.0789 46.68006-2.0789 46.68006-1.7009 20.41071 2.726 38.34412 2.726 38.34412 5.6126 5.47903 17.2389-0.93544 17.2389-0.93544-3.7094-7.9246-5.0787-24.97605-4.146-37.96399 1.6867-23.48861 2.8097-40.61325 2.8097-40.61325s-10.3131-7.77936-16.9277-8.7243z" fill="#999" stroke-width="3.175"/>
   <path d="m35.757425 169.96459s1.540502-1.93134 2.884101-4.43742c1.6646-3.10485 3.2057-7.05613 3.258-8.88624 0 0 0.566899 14.93006-2.173399 16.72544-2.7403 1.79539-5.6696 1.13393-5.6696 1.13393s-5.386202-5.85863-4.6302-12.00074c2.007399 2.96134 3.776599 5.24085 6.331098 7.46503z" stroke-width=".26458332px"/>
   <path d="m23.945626 176.67367s-6.709101-3.87426-6.331101-8.22099c0 0-3.3073 4.06325 2.2679 10.39435z" stroke-width=".26458332px"/>
  </g>
  <path d="m58.162926 199.9711s0 18.70982 2.9294 30.1436c0 0 2.3329 3.01074 10.5514 0.43827 0 0-12.1615-6.00599-13.4808-30.58187z" fill="#808080"/>
  <path d="m72.879826 215.35201s-7.4835 3.87542-12.1607 2.13817c0 0 0.781 2.11203 2.4173 2.90816 2.765 1.3454 8.5646 1.54646 10.4116-0.63638z" stroke="#000" stroke-width=".26458332px"/>
  <path d="m67.565126 148.11892s-2.1179-1.26682-4.0738-2.15156c-1.3956-0.63131-2.8563-1.46421-3.1696-1.474 0 0 0.038 0.50171 0.1897 3.25862 0.114 2.81207 0.081 3.83579 0 5.87747 0 0-0.2652 7.73572-0.2892 7.83022s4.3953-12.1536 6.9829-13.10689z" fill="#808080"/>
 </g>
</svg>
