<?xml version="1.0" encoding="UTF-8"?>
<!-- Created with Inkscape (http://www.inkscape.org/) -->
<svg width="98.247833mm" height="175.23485mm" version="1.1" viewBox="0 0 98.247833 175.23485" xmlns="http://www.w3.org/2000/svg" xmlns:cc="http://creativecommons.org/ns#" xmlns:dc="http://purl.org/dc/elements/1.1/" xmlns:rdf="http://www.w3.org/1999/02/22-rdf-syntax-ns#" xmlns:xlink="http://www.w3.org/1999/xlink">
 <defs>
  <linearGradient id="linearGradient932">
   <stop stop-color="#ececec" offset="0"/>
   <stop stop-color="#ececec" stop-opacity="0" offset="1"/>
  </linearGradient>
  <radialGradient id="radialGradient926" cx="85.329369" cy="124.60057" r="46.688213" gradientTransform="matrix(.03754873 1.9403146 -2.0535906 .03974082 338.00392 -43.774595)" gradientUnits="userSpaceOnUse" xlink:href="#linearGradient932"/>
  <radialGradient id="radialGradient934" cx="547.5188" cy="541.70087" r="15.587094" gradientTransform="matrix(-.16465754 10.83895 -11.89212 -.18065654 7075.2582 -5325.6053)" gradientUnits="userSpaceOnUse" xlink:href="#linearGradient932"/>
  <radialGradient id="radialGradient1007" cx="85.329369" cy="124.60057" r="46.688213" gradientTransform="matrix(-.03754873 1.9403146 2.0535906 .03974082 -136.81591 45.493427)" gradientUnits="userSpaceOnUse" xlink:href="#linearGradient932"/>
  <radialGradient id="radialGradient1009" cx="547.5188" cy="541.70087" r="15.587094" gradientTransform="matrix(.04356564 2.8678055 3.1464567 -.04779871 -1670.8074 -1319.7984)" gradientUnits="userSpaceOnUse" xlink:href="#linearGradient932"/>
 </defs>
 <metadata>
  <rdf:RDF>
   <cc:Work rdf:about="">
    <dc:format>image/svg+xml</dc:format>
    <dc:type rdf:resource="http://purl.org/dc/dcmitype/StillImage"/>
    <dc:title/>
   </cc:Work>
  </rdf:RDF>
 </metadata>
 <g transform="translate(-51.470089,-108.6156)">
  <g stroke="#000">
   <g>
    <path d="m60.854166 157.3378s-1.322917-44.22322 41.955354-48.19197c0 0 51.78274 2.26786 39.6875 54.42857 0 0-6.2366 31.93899-42.522318 30.42709 0 0-39.498511 0.37797-47.813988-38.74256 0 0-2.07887-3.77976 8.693452 2.07887z" fill="url(#radialGradient926)" stroke-width="1.0583333"/>
    <path d="m141.74107 147.13244s-1.51191 13.41815-39.6875 3.40179c0 0-0.56696 21.92262 13.22917 32.12797 0 0 10.20536 6.4256 16.06399-5.85863 0 0 9.07142-19.27678 7.55952-25.51339 0 0 3.96875-3.2128 2.83482-4.15774z" fill="#de1734" stroke-width="1.0583333"/>
    <path transform="scale(.26458333)" d="m408.71484 622.38281c-5.61664 0.0133-10.84371 0.38568-15.45898 0.89453 6.6406 23.63371 19.08743 49.81108 42.45898 67.09961 0 0 23.27539 14.6475 44.04493-0.57617 5.93633-10.15001 7.03859-23.5244-5.49219-40.0332-16.90427-22.27072-43.93109-27.43587-65.55274-27.38477z" fill="#f18eb9" stroke-width="4"/>
   </g>
   <path d="m90.337099 143.32002s-16.036171-7.48355-23.118812-2.93997c0 0-0.26727 13.63075 12.160763 19.77795" fill="none" stroke-width="1.0583333"/>
   <path transform="scale(.26458333)" d="m552.98242 501.88867c-5.07207 0.0681-11.10066 3.94441-15.9375 7.8711 6.6464 18.78905 9.82813 41.19834 7.86328 67.92187 6.56591-5.47348 11.18164-18.32226 11.18164-18.32226s12.12148-24.74776 6.06055-48.48633c-1.70463-6.67649-5.12862-9.03862-9.16797-8.98438z" fill="url(#radialGradient934)" stroke-width="4"/>
   <g fill="none" stroke-width="1.5875">
    <path d="m106.23964 133.69832s14.83346 12.02713 19.10977 0c0 0 10.28987 9.88897 11.75986-4.67722"/>
    <path d="m131.59865 137.80444c-0.18015 0.48692-0.14998 1.2509-8e-3 2.00968 0.26264 1.02168 0.61674 2.60892 0.91505 2.99168 0.81308 1.04329 2.02789 1.25233 2.65967-0.11296 0.26319-0.57036 0.46028-3.41381-0.29144-4.795-1.148-1.59292-2.70088-1.5512-3.27528-0.0934z"/>
    <path d="m117.9401 139.82384c-0.23055 0.47302-0.28056 1.23633-0.21861 2.00202 0.15463 1.03579 0.40784 2.70361 0.66497 3.10517 0.70085 1.0945 1.95625 1.11759 2.72889-0.20017 0.32204-0.55056 0.68292-3.16563 0.0786-4.5927-0.97697-1.66482-2.52872-1.72814-3.25387-0.31431z"/>
   </g>
   <g fill="#f9f9f9" stroke-width="4">
    <path transform="scale(.26458333)" d="m397.2832 571.86133c1.09311 6.59737 3.46112 18.32149 8.02149 30.21094 4.19289 10.93133 11.33254 21.44914 17.69726 29.25976 0 0 11.11877-18.84421 9.93164-52.17578-10.72496-1.73642-22.57535-4.13121-35.65039-7.29492z"/>
    <path transform="scale(.26458333)" d="m440.62109 580.3125c1.54498 6.23986 4.71083 18.3601 7.8086 26.01367 1.18548 2.92891 3.18314 5.19046 4.07031 6.19336 0 0 1.99119-1.58953 3.10547-4.13281 2.64861-6.04535 6.72943-17.46404 8.31445-25.74024-7.05214-0.39063-14.79679-1.14577-23.29883-2.33398z"/>
    <path transform="scale(.26458333)" d="m488.12891 582.48633c-5.88715 0.4785-12.51283 0.62323-19.94141 0.35547 1.23004 3.9081 7.49248 23.27788 12.39258 27.15234 0 0 7.62524-11.10976 7.54883-27.50781z"/>
    <path transform="scale(.26458333)" d="m524.84766 571.24023c-6.21343 4.51381-15.94831 8.7675-31.19922 10.68165-0.0974 5.60673-0.0281 16.66997 1.67578 26 1.1447 6.26834 4.38619 11.90381 6.24023 14.10546 0 0 19.76553-12.5708 23.28321-50.78711z"/>
   </g>
  </g>
  <g stroke="#000">
   <g stroke-width="1.0583333">
    <path d="m140.33384 246.60582s1.32292-44.22322-41.955353-48.19197c0 0-51.78274 2.26786-39.6875 54.42857 0 0 6.2366 31.93899 42.522313 30.42709 0 0 39.49852 0.37797 47.81399-38.74256 0 0 2.07887-3.77976-8.69345 2.07887z" fill="url(#radialGradient1007)"/>
    <path d="m59.446937 236.40046s1.51191 13.41815 39.6875 3.40179c0 0 0.56696 21.92262-13.22917 32.12797 0 0-10.20536 6.4256-16.06399-5.85863 0 0-9.07142-19.27678-7.55952-25.51339 0 0-3.96875-3.2128-2.83482-4.15774z" fill="#de1734"/>
    <path d="m93.048877 253.94014c1.48607 4e-3 2.86906 0.10204 4.09019 0.23668-1.757 6.25308-5.05022 13.17918-11.23394 17.75343 0 0-6.15828 3.87549-11.65356-0.15244-1.57065-2.68552-1.86229-6.22416 1.45314-10.59212 4.47259-5.89246 11.62344-7.25907 17.34417-7.24555z" fill="#f18eb9"/>
   </g>
   <path d="m110.85091 232.58804s16.03617-7.48355 23.11881-2.93997c0 0 0.26727 13.63075-12.16076 19.77795" fill="none" stroke-width="1.0583333"/>
   <path d="m54.878077 222.0594c1.34199 0.018 2.93705 1.04362 4.2168 2.08256-1.75853 4.97127-2.60036 10.90039-2.0805 17.97099-1.73723-1.44819-2.95847-4.84776-2.95847-4.84776s-3.20714-6.54785-1.60352-12.82868c0.45101-1.76648 1.35695-2.39146 2.42569-2.37711z" fill="url(#radialGradient1009)" stroke-width="1.0583333"/>
   <g fill="none" stroke-width="1.5875">
    <path d="m94.948367 222.96634s-14.83346 12.02713-19.10977 0c0 0-10.28987 9.88897-11.75986-4.67722"/>
    <path d="m69.589357 227.07246c0.18015 0.48692 0.14998 1.2509 8e-3 2.00968-0.26264 1.02168-0.61674 2.60892-0.91505 2.99168-0.81308 1.04329-2.02789 1.25233-2.65967-0.11296-0.26319-0.57036-0.46028-3.41381 0.29144-4.795 1.148-1.59292 2.70088-1.5512 3.27528-0.0934z"/>
    <path d="m83.247907 229.09186c0.23055 0.47302 0.28056 1.23633 0.21861 2.00202-0.15463 1.03579-0.40784 2.70361-0.66497 3.10517-0.70085 1.0945-1.95625 1.11759-2.72889-0.20017-0.32204-0.55056-0.68292-3.16563-0.0786-4.5927 0.97697-1.66482 2.52872-1.72814 3.25387-0.31431z"/>
   </g>
   <g fill="#f9f9f9" stroke-width="1.0583333">
    <path d="m96.073497 240.573c-0.28922 1.74555-0.91576 4.84756-2.12235 7.99331-1.10937 2.89225-2.99841 5.67508-4.6824 7.74164 0 0-2.94185-4.98586-2.62775-13.80484 2.83764-0.45943 5.97306-1.09305 9.4325-1.93011z"/>
    <path d="m84.607007 242.80904c-0.40877 1.65096-1.2464 4.85777-2.06602 6.88278-0.31366 0.77494-0.84221 1.37331-1.07694 1.63866 0 0-0.52683-0.42056-0.82165-1.09347-0.70078-1.5995-1.7805-4.6207-2.19987-6.81044 1.86588-0.10336 3.91499-0.30315 6.16448-0.61753z"/>
    <path d="m72.037237 243.3842c1.55764 0.1266 3.31068 0.16489 5.27616 0.0941-0.32545 1.03401-1.98238 6.15894-3.27887 7.18405 0 0-2.01751-2.93945-1.99729-7.2781z"/>
    <path d="m62.322067 240.40866c1.64397 1.19428 4.21966 2.31974 8.25479 2.82619 0.0258 1.48345 7e-3 4.4106-0.44338 6.87917-0.30287 1.6585-1.16051 3.14955-1.65106 3.73207 0 0-5.22963-3.32603-6.16035-13.43743z"/>
   </g>
  </g>
 </g>
</svg>
