<?xml version="1.0" encoding="UTF-8" standalone="no"?>
<!-- Created with Inkscape (http://www.inkscape.org/) -->

<svg
   xmlns:dc="http://purl.org/dc/elements/1.1/"
   xmlns:cc="http://creativecommons.org/ns#"
   xmlns:rdf="http://www.w3.org/1999/02/22-rdf-syntax-ns#"
   xmlns:svg="http://www.w3.org/2000/svg"
   xmlns="http://www.w3.org/2000/svg"
   xmlns:sodipodi="http://sodipodi.sourceforge.net/DTD/sodipodi-0.dtd"
   xmlns:inkscape="http://www.inkscape.org/namespaces/inkscape"
   width="68.706039mm"
   height="95.374832mm"
   viewBox="0 0 68.706039 95.374832"
   version="1.1"
   id="svg8"
   inkscape:version="0.92.4 (f8dce91, 2019-08-02)"
   sodipodi:docname="mouseClick.svg">
  <defs
     id="defs2" />
  <sodipodi:namedview
     id="base"
     pagecolor="#ffffff"
     bordercolor="#666666"
     borderopacity="1.0"
     inkscape:pageopacity="0.0"
     inkscape:pageshadow="2"
     inkscape:zoom="0.98994949"
     inkscape:cx="59.856784"
     inkscape:cy="176.77463"
     inkscape:document-units="mm"
     inkscape:current-layer="layer1"
     showgrid="false"
     showborder="false"
     inkscape:snap-global="false"
     fit-margin-top="0"
     fit-margin-left="0"
     fit-margin-right="0"
     fit-margin-bottom="0"
     inkscape:window-width="1299"
     inkscape:window-height="713"
     inkscape:window-x="67"
     inkscape:window-y="27"
     inkscape:window-maximized="1" />
  <metadata
     id="metadata5">
    <rdf:RDF>
      <cc:Work
         rdf:about="">
        <dc:format>image/svg+xml</dc:format>
        <dc:type
           rdf:resource="http://purl.org/dc/dcmitype/StillImage" />
        <dc:title></dc:title>
      </cc:Work>
    </rdf:RDF>
  </metadata>
  <g
     inkscape:label="Layer 1"
     inkscape:groupmode="layer"
     id="layer1"
     transform="translate(-63.34673,-177.68291)">
    <g
       id="g864"
       style="opacity:0.6">
      <path
         inkscape:connector-curvature="0"
         id="path826"
         d="m 96.845422,178.71491 c 0,0 20.312478,-2.67269 26.192408,9.88897 5.87993,12.56167 11.75986,34.2105 5.61266,63.61016 0,0 -6.41447,17.63978 -31.003258,20.04521 0,0 -28.33057,-3.47451 -32.33961,-24.32153 -4.00905,-20.84702 3.4745,-51.04848 5.34539,-55.59206 1.87088,-4.54358 6.41447,-13.09621 26.19241,-13.63075 z"
         style="fill:none;fill-opacity:0.93582889;stroke:#fffff4;stroke-width:1.58749998;stroke-linecap:butt;stroke-linejoin:miter;stroke-miterlimit:4;stroke-dasharray:none;stroke-opacity:1" />
      <path
         sodipodi:nodetypes="scccccccss"
         inkscape:connector-curvature="0"
         id="path842"
         d="m 101.73583,178.47843 c -2.147147,-0.0181 -3.777218,0.119 -4.489646,0.19224 v 11.13575 c 0,0 4.009016,-0.66821 3.808556,3.80856 -0.20045,4.47676 0,20.11246 0,20.11246 0,0 0.54607,3.78372 -3.574458,3.57446 l -3e-6,10.44691 c 10.606351,0.36201 22.352071,-1.53948 33.449631,-8.21758 -1.04942,-13.21218 -4.46833,-23.61307 -7.89202,-30.92732 -4.04245,-8.63614 -14.90677,-10.07164 -21.30206,-10.12548 z"
         style="fill:none;fill-opacity:0.93582889;stroke:#fffff4;stroke-width:1.58749998;stroke-linecap:butt;stroke-linejoin:miter;stroke-miterlimit:4;stroke-dasharray:none;stroke-opacity:1" />
      <path
         sodipodi:nodetypes="cccccccscc"
         inkscape:connector-curvature="0"
         id="path847"
         d="m 97.168153,178.67842 c -0.19222,0.0205 -0.322977,0.0367 -0.322977,0.0367 -19.77794,0.53454 -24.32132,9.08711 -26.192202,13.6307 -1.104281,2.68182 -4.162493,14.30403 -5.660117,27.66394 5.683504,2.54271 17.98797,7.22834 32.409389,7.73596 l -1.202713,-10.53336 c -2.560908,-0.35608 -2.372263,-2.50568 -2.372263,-2.50568 v -20.51291 c 0,-3.59144 3.274066,-4.34325 3.274066,-4.34325 z"
         style="fill:#ffffff;fill-opacity:1;stroke:#fffff4;stroke-width:1.58749998;stroke-linecap:butt;stroke-linejoin:miter;stroke-miterlimit:4;stroke-dasharray:none;stroke-opacity:1" />
      <path
         style="fill:none;fill-opacity:0.93582889;stroke:#fffff4;stroke-width:1.58749998;stroke-linecap:butt;stroke-linejoin:miter;stroke-miterlimit:4;stroke-dasharray:none;stroke-opacity:1"
         d="m 101.73583,178.47843 c -2.147147,-0.0181 -3.777218,0.119 -4.489646,0.19224 v 11.13575 c 0,0 2.539034,-0.80184 3.808556,3.80856 -0.20045,4.47676 0,20.11246 0,20.11246 0,0 0.54607,3.78372 -3.574458,3.57446 l -3e-6,10.44691 c 10.606351,0.36201 22.352071,-1.53948 33.449631,-8.21758 -1.04942,-13.21218 -4.46833,-23.61307 -7.89202,-30.92732 -4.04245,-8.63614 -14.90677,-10.07164 -21.30206,-10.12548 z"
         id="path849"
         inkscape:connector-curvature="0"
         sodipodi:nodetypes="scccccccss" />
    </g>
  </g>
</svg>
